<?xml version="1.0" encoding="utf-8"?>
<!-- Generator: Adobe Illustrator 21.0.2, SVG Export Plug-In . SVG Version: 6.00 Build 0)  -->
<svg version="1.1" id="Layer_1" xmlns="http://www.w3.org/2000/svg" xmlns:xlink="http://www.w3.org/1999/xlink" x="0px" y="0px"
	 viewBox="0 0 37 37" style="enable-background:new 0 0 37 37;" xml:space="preserve">
<style type="text/css">
	.st0{fill:#141E73;}
	.st1{filter:url(#Adobe_OpacityMaskFilter);}
	.st2{fill:#FFFFFF;}
	.st3{mask:url(#mask-2);fill:#141E73;}
</style>
<g id="Symbols">
	<g id="icon_smiley">
		<g id="smile">
			<g id="Group-8" transform="translate(12.131148, 11.130081)">
				<path id="Fill-1" class="st0" d="M2,3.9c1.1,0,2-0.9,2-2c0-1.1-0.9-2-2-2C0.9,0,0,0.9,0,2C0,3,0.9,3.9,2,3.9"/>
				<path id="Fill-3" class="st0" d="M10.8,3.9c1.1,0,2-0.9,2-2c0-1.1-0.9-2-2-2c-1.1,0-2,0.9-2,2C8.8,3,9.7,3.9,10.8,3.9"/>
			</g>
			<g id="Group-7">
				<defs>
					<filter id="Adobe_OpacityMaskFilter" filterUnits="userSpaceOnUse" x="0" y="0.1" width="37" height="36.7">
						<feColorMatrix  type="matrix" values="1 0 0 0 0  0 1 0 0 0  0 0 1 0 0  0 0 0 1 0"/>
					</filter>
				</defs>
				<mask maskUnits="userSpaceOnUse" x="0" y="0.1" width="37" height="36.7" id="mask-2">
					<g class="st1">
						<polygon id="path-1" class="st2" points="0,0.1 0,36.8 37,36.8 37,0.1 						"/>
					</g>
				</mask>
				<path id="Fill-5" class="st3" d="M18.5,35.5c-9.5,0-17.2-7.6-17.2-17c0-9.4,7.7-17,17.2-17c9.5,0,17.2,7.6,17.2,17
					C35.7,27.9,28,35.5,18.5,35.5 M18.5,0.1C8.3,0.1,0,8.4,0,18.5c0,10.1,8.3,18.3,18.5,18.3c10.2,0,18.5-8.2,18.5-18.3
					C37,8.4,28.7,0.1,18.5,0.1"/>
			</g>
			<path id="Fill-8" class="st0" d="M29.6,19.6c-0.3,0-0.6,0.2-0.7,0.5c-1,4.8-5.4,8.4-10.5,8.4c-5,0-9.3-3.3-10.4-8
				c-0.1-0.3-0.3-0.5-0.7-0.5c-0.1,0-0.1,0-0.2,0c-0.4,0.1-0.6,0.4-0.5,0.8c1.3,5.3,6.1,9.1,11.8,9.1c5.7,0,10.7-4,11.9-9.4
				c0.1-0.4-0.2-0.7-0.5-0.8C29.7,19.6,29.7,19.6,29.6,19.6z"/>
		</g>
	</g>
</g>
</svg>
