<?xml version="1.0" encoding="utf-8"?>
<!-- Generator: Adobe Illustrator 21.0.2, SVG Export Plug-In . SVG Version: 6.00 Build 0)  -->
<svg version="1.1" id="Layer_1" xmlns="http://www.w3.org/2000/svg" xmlns:xlink="http://www.w3.org/1999/xlink" x="0px" y="0px"
	 viewBox="0 0 40 40" style="enable-background:new 0 0 40 40;" xml:space="preserve">
<style type="text/css">
	.st0{fill:#141E73;}
</style>
<g id="home---gcc">
	<g id="home" transform="translate(-623.000000, -432.000000)">
		<g id="Group-11" transform="translate(281.000000, 432.000000)">
			<g id="Group-9" transform="translate(342.000000, 0.000000)">
				<g id="icon_meal">
					<path class="st0" d="M38.6,6.7H30V3.7l4.3-2.5c0.3-0.2,0.5-0.6,0.3-0.9S34-0.1,33.6,0.1L29,2.7c0,0-0.1,0-0.1,0.1
						c-0.2,0.1-0.2,0.3-0.2,0.5v3.3H20c-0.7,0-1.3,0.6-1.3,1.3v2.7c0,0.5,0.3,0.9,0.7,1.2l0.1,2.6C17.8,14.2,16,14,14,14
						c-8.4,0-14,2.9-14,7.3V22c0,0.7,0.6,1.3,1.3,1.3H2v1.5c-1,0.3-1.7,1-1.9,2c-0.1,0.7,0.1,1.5,0.5,2.1c0.3,0.4,0.8,0.8,1.4,0.9
						v0.7c-1.1,0-2,1-2,2.1v1.3c0,1.1,0.9,2,2,2.1v2c0,1.1,0.9,2,2,2h20H36c1.1,0,1.9-0.9,2-1.9l1.2-26.2c0.4-0.2,0.7-0.7,0.7-1.2V8
						C40,7.3,39.4,6.7,38.6,6.7z M20,8h18.7v2.7H20V8z M3.3,30.6v-0.7c0.4-0.1,0.8-0.3,1.2-0.6C4.9,29,5.1,28.5,5.3,28h2.1
						c0.3,1.1,1.3,2,2.6,2c1.3,0,2.3-0.9,2.6-2h2.9c0.3,1.1,1.3,2,2.6,2c1.3,0,2.3-0.9,2.6-2h2.1c0.1,0.5,0.3,1,0.7,1.3
						c0.3,0.3,0.7,0.5,1.2,0.6v0.7H3.3z M27,25.2c-0.3-0.2-0.6-0.4-1-0.5v-1.4h0.7c0.7,0,1.3-0.6,1.3-1.3v-0.7c0-0.1,0-0.2,0-0.3
						c0,0,0,0,0,0c0-0.8-0.3-1.6-0.8-2.4c0,0-0.1-0.1-0.1-0.1c0.7-0.3,1.4-0.5,2.2-0.5c2.6,0,4.7,2.1,4.7,4.7s-2.1,4.7-4.7,4.7
						c-0.5,0-0.9-0.1-1.3-0.2C27.9,26.4,27.5,25.7,27,25.2z M1.3,21.3c0-3.5,5.2-6,12.7-6c6,0,10.6,1.6,12.1,4.1
						c0.4,0.6,0.5,1.2,0.5,1.9V22h-1.3H2.7H1.3V21.3z M24.6,23.3v1.3H3.3v-1.3H24.6z M1.7,28c-0.2-0.2-0.3-0.5-0.3-1
						C1.5,26.4,2.1,26,2.8,26h22.5c0.7,0,1.3,0.6,1.3,1.3c0,0.7-0.7,1.2-1.4,1.3c-0.1,0-0.2,0-0.2,0.1c-0.3,0-0.4-0.1-0.6-0.3
						c-0.3-0.2-0.4-0.6-0.4-1c0-0.4-0.3-0.7-0.7-0.7H20c-0.4,0-0.7,0.3-0.7,0.7c0,0.7-0.6,1.3-1.3,1.3c-0.7,0-1.3-0.6-1.3-1.3
						c0-0.4-0.3-0.7-0.7-0.7h-4c-0.4,0-0.7,0.3-0.7,0.7c0,0.7-0.6,1.3-1.3,1.3c-0.7,0-1.3-0.6-1.3-1.3c0-0.4-0.3-0.7-0.7-0.7H4.7
						c-0.4,0-0.7,0.3-0.7,0.7c0,0.4-0.1,0.8-0.4,0.9c-0.2,0.3-0.5,0.3-0.9,0.3C2.3,28.6,1.9,28.4,1.7,28z M1.3,34v-1.3
						c0-0.9,0.7-0.8,0.7-0.8h0.6h22.6H26c0.4,0,0.7,0.3,0.7,0.7v1.3c0,0.4-0.3,0.7-0.7,0.7h-0.7H2.7H2.1C1.7,34.6,1.3,34.3,1.3,34z
						 M3.3,38v-2h21.3v2c0,0.4-0.3,0.7-0.7,0.7H4C3.6,38.6,3.3,38.4,3.3,38z M36.7,38c0,0.4-0.3,0.7-0.7,0.7H25.9
						c0.1-0.1,0.1-0.3,0.1-0.5c0,0,0-0.1,0-0.1V38V36c0.9-0.1,1.6-0.6,1.9-1.4c0.1-0.2,0.2-0.5,0.2-0.8v-1.3c0-1.1-0.9-2.1-2.1-2.1
						v-0.6c0.8-0.2,1.4-0.8,1.8-1.5c0.5,0.1,1,0.2,1.6,0.2c3.3,0,6-2.7,6.1-6.1c0-3.3-2.7-6-6-6c-1.1,0-2.2,0.3-3.1,0.9
						c-1.2-1.2-3.1-2.1-5.4-2.7L20.7,12H38L36.7,38z"/>
				</g>
			</g>
		</g>
	</g>
</g>
</svg>
