<?xml version="1.0" encoding="utf-8"?>
<!-- Generator: Adobe Illustrator 21.0.2, SVG Export Plug-In . SVG Version: 6.00 Build 0)  -->
<svg version="1.1" id="Layer_1" xmlns="http://www.w3.org/2000/svg" xmlns:xlink="http://www.w3.org/1999/xlink" x="0px" y="0px"
	 viewBox="0 0 40 40" style="enable-background:new 0 0 40 40;" xml:space="preserve">
<style type="text/css">
	.st0{fill:#141E73;}
</style>
<g id="home---gcc">
	<g id="home" transform="translate(-281.000000, -432.000000)">
		<g id="Group-11" transform="translate(281.000000, 432.000000)">
			<g id="Group-10">
				<g id="icon_rest">
					<g id="shop">
						<g id="Group">
							<path id="Shape" class="st0" d="M35.5,19.2c-1.7,0-3.1-0.9-3.9-2.2c-0.8,1.3-2.2,2.2-3.9,2.2s-3.1-0.9-3.9-2.2
								c-0.8,1.3-2.2,2.2-3.9,2.2c-1.7,0-3.1-0.9-3.9-2.2c-0.8,1.3-2.2,2.2-3.9,2.2c-1.7,0-3.1-0.9-3.9-2.2
								c-0.8,1.3-2.2,2.2-3.9,2.2c-2.5,0-4.5-2-4.5-4.5v-6c0-0.1,0-0.2,0-0.2l2.9-7.3C3,0.9,3.2,0.8,3.5,0.8h33.1
								c0.2,0,0.5,0.2,0.6,0.4L40,8.5c0,0.1,0,0.1,0,0.2v6C40,17.2,38,19.2,35.5,19.2z M31.6,14.1c0.3,0,0.6,0.3,0.6,0.6
								c0,1.8,1.5,3.3,3.3,3.3c1.8,0,3.3-1.5,3.3-3.3V8.8L36.1,2H3.9L1.2,8.8v5.9c0,1.8,1.5,3.3,3.3,3.3c1.8,0,3.3-1.5,3.3-3.3
								c0-0.3,0.3-0.6,0.6-0.6c0.3,0,0.6,0.3,0.6,0.6c0,1.8,1.5,3.3,3.3,3.3c1.8,0,3.3-1.5,3.3-3.3c0-0.3,0.3-0.6,0.6-0.6
								c0.3,0,0.6,0.3,0.6,0.6c0,1.8,1.5,3.3,3.3,3.3c1.8,0,3.3-1.5,3.3-3.3c0-0.3,0.3-0.6,0.6-0.6s0.6,0.3,0.6,0.6
								c0,1.8,1.5,3.3,3.3,3.3c1.8,0,3.3-1.5,3.3-3.3C31,14.4,31.3,14.1,31.6,14.1z"/>
							<path id="Shape_1_" class="st0" d="M34.4,39.2H5.6C4.1,39.2,3,38,3,36.6V23.8c0-0.3,0.3-0.6,0.6-0.6s0.6,0.3,0.6,0.6v12.8
								c0,0.8,0.6,1.4,1.4,1.4h28.8c0.8,0,1.4-0.6,1.4-1.4V23.8c0-0.3,0.3-0.6,0.6-0.6s0.6,0.3,0.6,0.6v12.8
								C37,38,35.9,39.2,34.4,39.2z"/>
							<g id="Shape_2_" transform="translate(7.272727, 21.818182)">
								<path class="st0" d="M10.2,17.2H1.4c-0.3,0-0.6-0.3-0.6-0.6v-15C0.8,1.2,1.1,1,1.4,1h8.8c0.3,0,0.6,0.3,0.6,0.6v15
									C10.8,16.9,10.6,17.2,10.2,17.2z M2.1,16h7.6V2.2H2.1V16z"/>
								<path class="st0" d="M24,10.2H13.6c-0.3,0-0.6-0.3-0.6-0.6v-8C13,1.2,13.3,1,13.6,1H24c0.3,0,0.6,0.3,0.6,0.6v8
									C24.6,9.9,24.3,10.2,24,10.2z M14.2,8.9h9.2V2.2h-9.2V8.9z"/>
							</g>
						</g>
					</g>
				</g>
			</g>
		</g>
	</g>
</g>
</svg>
